<?xml version="1.0" encoding="utf-8"?>
<!-- Generator: Adobe Illustrator 19.2.1, SVG Export Plug-In . SVG Version: 6.00 Build 0)  -->
<svg version="1.1" id="Layer_1" xmlns="http://www.w3.org/2000/svg" xmlns:xlink="http://www.w3.org/1999/xlink" x="0px" y="0px"
	 viewBox="0 0 512 512" style="enable-background:new 0 0 512 512;" xml:space="preserve">
<path d="M260.7,188.5L260.7,188.5c-57.9,0-102.7,36.6-102.7,79c0,20.1,10,38.8,26.7,53v53.7H208v-55.4h18.7v55.4H251v-55.4h18.7
	v55.4h23.8v-55.4h18.7v55.4h23.3v-52.8c17.4-14.3,27.9-33.5,27.9-54C363.3,225.1,318.5,188.5,260.7,188.5z M218.2,300.1
	c-17.1,0-30.8-13.7-30.8-30.8s13.7-30.8,30.8-30.8l0,0c17.1,0,30.8,13.7,30.8,30.8C249.1,286.4,235.4,300.1,218.2,300.1z
	 M300.8,300.1c-17.1,0-30.8-13.7-30.8-30.8c0-17.1,13.7-30.8,30.8-30.8c0,0,0,0,0,0h0c0,0,0,0,0,0c17.1,0,30.8,13.7,30.8,30.8
	C331.7,286.4,318,300.1,300.8,300.1z"/>
<path d="M142.2,119c-48.8,35.5-80.6,93.1-80.6,158.1c0,55.1,22.8,104.8,59.4,140.3c4.3-13.6,14.1-24.9,26.8-31.3
	c-27.5-27.8-44.6-66-44.6-108.2c0-49.6,23.5-93.8,60-121.9C153.3,145.2,146,132.7,142.2,119L142.2,119z"/>
<path d="M377.8,123.4c-4.5,13.4-12.4,25.5-22.9,35.8c34.2,28.2,56,70.9,56,118.7c0,42.6-17.4,81.2-45.4,109.1
	c12.4,6.8,21.8,18.4,25.7,32.2c37.7-35.6,61.2-86.1,61.2-142.1C452.4,214.7,423.2,159.2,377.8,123.4L377.8,123.4z"/>
</svg>
