<?xml version="1.0" encoding="utf-8"?>
<!-- Generator: Adobe Illustrator 19.2.1, SVG Export Plug-In . SVG Version: 6.00 Build 0)  -->
<svg version="1.1" id="Layer_1" xmlns="http://www.w3.org/2000/svg" xmlns:xlink="http://www.w3.org/1999/xlink" x="0px" y="0px"
	 viewBox="0 0 512 512" style="enable-background:new 0 0 512 512;" xml:space="preserve">
<path d="M253.4,509.2L253.4,509.2c57.9,0,102.7-36.6,102.7-79c0-20.1-10-38.8-26.7-53v-53.7h-23.3v55.4h-18.7v-55.4h-24.3v55.4
	h-18.7v-55.4h-23.8v55.4h-18.7v-55.4h-23.3v52.8c-17.4,14.3-27.9,33.5-27.9,54C150.7,472.5,195.5,509.2,253.4,509.2z M295.8,397.5
	c17.1,0,30.8,13.7,30.8,30.8s-13.7,30.8-30.8,30.8l0,0c-17.1,0-30.8-13.7-30.8-30.8C265,411.2,278.7,397.5,295.8,397.5z
	 M213.2,397.5c17.1,0,30.8,13.7,30.8,30.8c0,17.1-13.7,30.8-30.8,30.8c0,0,0,0,0,0h0c0,0,0,0,0,0c-17.1,0-30.8-13.7-30.8-30.8
	C182.4,411.2,196.1,397.5,213.2,397.5z"/>
<path d="M391.9,428.6c48.8-35.5,80.6-93.1,80.6-158.1c0-55.1-22.8-104.8-59.4-140.3c-4.3,13.6-14.1,24.9-26.8,31.3
	c27.5,27.8,44.6,66,44.6,108.2c0,49.6-23.5,93.8-60,121.9C380.8,402.4,388.1,414.9,391.9,428.6L391.9,428.6z"/>
<path d="M116.3,424.2c4.5-13.4,12.4-25.5,22.9-35.8c-34.2-28.2-56-70.9-56-118.7c0-42.6,17.4-81.2,45.4-109.1
	c-12.4-6.8-21.8-18.4-25.7-32.2c-37.7,35.6-61.2,86.1-61.2,142.1C41.6,332.9,70.8,388.4,116.3,424.2L116.3,424.2z"/>
</svg>
