<?xml version="1.0" encoding="utf-8"?>
<!-- Generator: Adobe Illustrator 19.2.1, SVG Export Plug-In . SVG Version: 6.00 Build 0)  -->
<svg version="1.1" id="Layer_1" xmlns="http://www.w3.org/2000/svg" xmlns:xlink="http://www.w3.org/1999/xlink" x="0px" y="0px"
	 viewBox="0 0 512 512" style="enable-background:new 0 0 512 512;" xml:space="preserve">
<g transform="translate(0,0)">
	<path d="M85.2,408.6H26V103.3h59.2V408.6L85.2,408.6z M85.2,35.1l-50.1,50h50.1V35.1z M408.7,85.2V26H103.4v59.2L408.7,85.2
		L408.7,85.2z M35.1,426.8L85.2,477v-50.1H35.1z M477,85.2l-50.1-50.1v50.1H477z M408.7,426.8H103.4V486h305.3V426.8z M409.1,103.3
		v305.1H104V103.3L409.1,103.3L409.1,103.3z M387.2,120.4H121.1v268.5C134.2,158.6,165.1,149.3,387.2,120.4z M486,103.3h-59.2v305.3
		H486V103.3z M426.8,476.9l50.1-50.1h-50.1V476.9z"/>
</g>
</svg>
