<?xml version="1.0" encoding="utf-8"?>
<!-- Generator: Adobe Illustrator 19.2.1, SVG Export Plug-In . SVG Version: 6.00 Build 0)  -->
<svg version="1.1" id="Layer_1" xmlns="http://www.w3.org/2000/svg" xmlns:xlink="http://www.w3.org/1999/xlink" x="0px" y="0px"
	 viewBox="0 0 512 512" style="enable-background:new 0 0 512 512;" xml:space="preserve">
<style type="text/css">
	.st0{fill:none;}
</style>
<path class="st0" d="M121.9,257.8c-15.7,38,2.3,81.6,40.3,97.3c8.7,3.6,17.6,5.4,26.4,5.6V345c-31.5-1.1-56.7-27-56.7-58.7
	c0-31.8,25.2-57.6,56.7-58.7v-15.7C160.2,212.7,133.5,229.8,121.9,257.8z"/>
<path d="M30.8,446.2L30.8,446.2C30.8,446.2,30.8,446.2,30.8,446.2C30.8,446.2,30.8,446.2,30.8,446.2z"/>
<path d="M141.7,404.6c-1.3-0.5-2.6-0.7-4-0.7l0,0c-1.3,0.1-2.7,0.4-4.1,0.9c-9.6,3.9-18.9,19.3-19.3,29.2c-1.6,40-1.4,40.1-1.4,40.1
	s-0.1-0.2,27.4-29.3C149,435.5,153.5,409.4,141.7,404.6z"/>
<path d="M21,456c0,0,3.9-3.7,9.8-9.9C24.7,452.2,21,456,21,456z"/>
<path d="M32.4,235.9c9.3,8.6,35.2,13.2,40.1,1.4c3.8-9.2-8.6-20.5-20.2-25.2c-3.2-1.3-6.4-2.1-9.2-2.2c-40-1.2-40.1-1.4-40.1-1.4h0
	C3,208.6,2.9,208.8,32.4,235.9z"/>
<path d="M72.5,335.3c-2.1-5.2-8.3-7.2-15.4-7.1l0,0c-5.5,0.1-11.6,1.4-16.6,3.6c-3.2,1.4-6,3.1-8,5C3.3,364.2,3.1,364.1,3.1,364.1
	s0.1,0.2,40.1-1.4C55.8,362.1,77.4,347.1,72.5,335.3z"/>
<polygon points="113,98.6 113,98.6 113,98.6 "/>
<path d="M114.4,138.7c0.5,12.6,15.6,34.2,27.3,29.3c11.8-4.9,7.3-30.9-1.4-40.1C113.7,99.7,113,98.7,113,98.6
	C113,98.7,112.8,99.9,114.4,138.7z"/>
<path d="M21,109.3c0,0,4.2,4.8,10.8,11.9C25.3,113.8,21,109.3,21,109.3z"/>
<path d="M121.9,257.8c7.9-19.2,23-33.3,40.8-40.5v-0.9c-34.8,2-107.3-69.7-130.9-95.3c24.6,27.9,82.1,98,69.1,129.4
	c-13.1,31.7-66,35.5-100.9,36c34.9,0.4,87.8,5.2,100.9,36.9c13.2,31.9-46.1,97.8-70.1,122.6c24.5-24.2,89.5-83.9,121.3-70.7
	c31.8,13.2,36.1,101.5,36.6,136.5V360.8c-8.8-0.2-17.8-2.1-26.4-5.6C124.2,339.4,106.2,295.8,121.9,257.8z"/>
<path class="st0" d="M391.6,257.8c15.7,38-2.3,81.6-40.3,97.3c-8.7,3.6-17.6,5.4-26.4,5.6V345c31.5-1.1,56.7-27,56.7-58.7
	c0-31.8-25.2-57.6-56.7-58.7v-15.7C353.3,212.7,380,229.8,391.6,257.8z"/>
<path d="M482.7,446.2L482.7,446.2C482.7,446.2,482.7,446.2,482.7,446.2C482.7,446.2,482.7,446.2,482.7,446.2z"/>
<path d="M371.7,404.6c1.3-0.5,2.6-0.7,4-0.7l0,0c1.3,0.1,2.7,0.4,4.1,0.9c9.6,3.9,18.9,19.3,19.3,29.2c1.6,40,1.4,40.1,1.4,40.1
	s0.1-0.2-27.4-29.3C364.5,435.5,360,409.4,371.7,404.6z"/>
<path d="M492.5,456c0,0-3.9-3.7-9.8-9.9C488.8,452.2,492.5,456,492.5,456z"/>
<path d="M481.1,235.9c-9.3,8.6-35.2,13.2-40.1,1.4c-3.8-9.2,8.6-20.5,20.2-25.2c3.2-1.3,6.4-2.1,9.2-2.2c40-1.2,40.1-1.4,40.1-1.4h0
	C510.5,208.6,510.5,208.8,481.1,235.9z"/>
<path d="M441,335.3c2.1-5.2,8.3-7.2,15.4-7.1l0,0c5.5,0.1,11.6,1.4,16.6,3.6c3.2,1.4,6,3.1,8,5c29.1,27.5,29.4,27.3,29.4,27.3
	s-0.1,0.2-40.1-1.4C457.7,362.1,436.1,347.1,441,335.3z"/>
<polygon points="400.5,98.6 400.5,98.6 400.5,98.6 "/>
<path d="M399.1,138.7c-0.5,12.6-15.6,34.2-27.3,29.3c-11.8-4.9-7.3-30.9,1.4-40.1c26.7-28.3,27.4-29.3,27.4-29.3
	C400.5,98.7,400.7,99.9,399.1,138.7z"/>
<path d="M492.5,109.3c0,0-4.2,4.8-10.8,11.9C488.2,113.8,492.5,109.3,492.5,109.3z"/>
<path d="M391.6,257.8c-7.9-19.2-23-33.3-40.8-40.5v-0.9c34.8,2,107.3-69.7,130.9-95.3c-24.6,27.9-82.1,98-69.1,129.4
	c13.1,31.7,66,35.5,100.9,36c-34.9,0.4-87.8,5.2-100.9,36.9c-13.2,31.9,46.1,97.8,70.1,122.6c-24.5-24.2-89.5-83.9-121.3-70.7
	C329.6,388.6,325.3,477,324.8,512V360.8c8.8-0.2,17.8-2.1,26.4-5.6C389.2,339.4,407.3,295.8,391.6,257.8z"/>
</svg>
