<?xml version="1.0" encoding="utf-8"?>
<!-- Generator: Adobe Illustrator 19.2.1, SVG Export Plug-In . SVG Version: 6.00 Build 0)  -->
<svg version="1.1" id="Layer_1" xmlns="http://www.w3.org/2000/svg" xmlns:xlink="http://www.w3.org/1999/xlink" x="0px" y="0px"
	 viewBox="0 0 512 512" style="enable-background:new 0 0 512 512;" xml:space="preserve">
<g>
	<path d="M86.2,78.9c0,0,4.2,4.8,10.8,11.9C90.6,83.5,86.2,78.9,86.2,78.9z"/>
	<path d="M96,415.8L96,415.8C96,415.9,96,415.9,96,415.8C96,415.9,96,415.9,96,415.8z"/>
	<path d="M97.7,205.6c9.3,8.6,35.2,13.2,40.1,1.4c3.8-9.2-8.6-20.5-20.2-25.2c-3.2-1.3-6.4-2.1-9.2-2.2c-40-1.2-40.1-1.4-40.1-1.4h0
		C68.3,178.3,68.2,178.5,97.7,205.6z"/>
	<path d="M16,256.8c0,0,5.6,0.1,14.4,0C21.6,256.6,16,256.8,16,256.8z"/>
	<path d="M137.7,305c-2.1-5.2-8.3-7.2-15.4-7.1l0,0c-5.5,0.1-11.6,1.4-16.6,3.6c-3.2,1.4-6,3.1-8,5c-29.1,27.5-29.4,27.3-29.4,27.3
		s0.1,0.2,40.1-1.4C121,331.8,142.6,316.8,137.7,305z"/>
	<path d="M304.9,137.8c11.8,4.9,27-16.8,27.4-29.4c1.2-40,1.4-40.1,1.4-40.1l0,0c0,0-0.2-0.1-27.3,29.4
		C297.9,106.9,293.2,132.9,304.9,137.8z"/>
	<path d="M393,182.5c-11.2,5-22.4,15.7-18.8,24.6c4.9,11.8,30.8,7.1,40.1-1.4c29.4-27.1,29.3-27.3,29.3-27.3v0c0,0,0,0.3-40.1,1.4
		C400.5,179.8,396.8,180.8,393,182.5z"/>
	<path d="M179.7,108.4c0.5,12.6,15.6,34.2,27.3,29.3c11.8-4.9,7.3-30.9-1.4-40.1c-26.7-28.3-27.4-29.3-27.4-29.3
		C178.2,68.4,178.1,69.6,179.7,108.4z"/>
	<polygon points="178.2,68.3 178.2,68.3 178.2,68.3 	"/>
	<path d="M433.1,78.9c0,0-4.2,4-10.7,10.7C429,83.1,433.1,78.9,433.1,78.9z"/>
	<path d="M404.9,300.9c-5.1-2-11.1-3.1-16.5-3l0,0c-3.2,0.1-6.2,0.6-8.6,1.7c-2.6,1.1-4.5,2.9-5.6,5.4
		c-4.9,11.8,16.8,26.8,29.4,27.3c40,1.6,40.1,1.4,40.1,1.4s-0.2,0.2-29.4-27.3C412,304.3,408.7,302.3,404.9,300.9z"/>
	<path d="M423.3,416.9c-26.1-24.1-94.3-91.4-80.9-123.7c13.1-31.5,101.9-36,138.1-36.5c-36.2-0.5-125.1-4.9-138.1-36.4
		c-13.2-31.9,53.3-103.7,79.9-130.7c-27.3,26.4-100,92.4-131.9,79.2c-31.8-13.2-36.1-102.9-36.6-138.3
		c-0.5,35.4-4.8,125.2-36.6,138.3c-31.4,13-95-50.7-120.3-77.9c24.6,27.9,82.1,98,69.1,129.4C153,252,65.3,256.3,30.4,256.8
		c34.9,0.4,122.6,4.7,135.8,36.5C179.4,325.1,120,391,96,415.8c24.5-24.2,89.5-83.9,121.3-70.7c31.8,13.2,36.1,101.7,36.6,136.6
		c0.5-34.9,4.7-123.5,36.6-136.6C322.8,331.9,396.7,393.4,423.3,416.9L423.3,416.9c6,5.6,9.8,8.8,9.8,8.8S429.5,422.3,423.3,416.9
		L423.3,416.9z M324.8,284.5c-15.7,38-59.3,56.1-97.3,40.3c-38-15.7-56.1-59.3-40.3-97.3c11.8-28.5,39.3-45.8,68.3-46l0,0
		c9.7-0.1,19.5,1.8,29,5.7C322.5,202.9,340.6,246.5,324.8,284.5z"/>
	<path d="M253.9,16c0,0-0.1,5.6,0,14.5C254.1,21.6,253.9,16,253.9,16z"/>
	<path d="M480.6,256.8L480.6,256.8c9.4,0.1,15.4,0,15.4,0S490,256.6,480.6,256.8z"/>
	<path d="M207,374.2c-1.3-0.5-2.6-0.7-4-0.7l0,0c-1.3,0.1-2.7,0.4-4.1,0.9c-9.6,3.9-18.9,19.3-19.3,29.2c-1.6,40-1.4,40.1-1.4,40.1
		s-0.1-0.2,27.4-29.3C214.3,405.2,218.8,379.1,207,374.2z"/>
	<path d="M253.9,496c0,0,0.1-5.5,0-14.2C253.8,490.5,253.9,496,253.9,496z"/>
	<path d="M86.2,425.7c0,0,3.9-3.7,9.8-9.9C90,421.8,86.2,425.7,86.2,425.7z"/>
	<path d="M308.3,373.6c-1.1,0-2.3,0.3-3.4,0.7c-11.8,4.9-7.1,30.8,1.4,40.1c27.1,29.4,27.3,29.3,27.3,29.3s-0.2,0-1.4-40.1
		C332,392.2,319.4,373.4,308.3,373.6z"/>
	<polygon points="308.3,373.6 308.3,373.6 308.3,373.6 	"/>
</g>
</svg>
