<?xml version="1.0" encoding="utf-8"?>
<!-- Generator: Adobe Illustrator 19.2.1, SVG Export Plug-In . SVG Version: 6.00 Build 0)  -->
<svg version="1.1" id="Layer_1" xmlns="http://www.w3.org/2000/svg" xmlns:xlink="http://www.w3.org/1999/xlink" x="0px" y="0px"
	 viewBox="0 0 512 512" style="enable-background:new 0 0 512 512;" xml:space="preserve">
<polygon points="392.3,159.9 382.4,85.1 359.4,171.2 316.5,185.9 320.9,202.4 280.7,213.2 270,173 287.1,168.4 278.6,125 
	341.7,61.8 271.8,90.8 255,4.8 238,91.1 170.1,63.5 231.3,125.4 222.9,168.2 240.9,173 230.1,213.2 189.9,202.4 194.5,185.5 
	152.8,171.3 129.8,85.3 120,160 37.4,131.8 103.6,189.6 45.4,234.8 130,212.6 162.3,240.8 175.4,227.6 204.8,257.1 175.4,286.5 
	163.4,274.5 130.5,303.3 44.5,280.2 104.2,326.1 38.2,383.8 121.7,355.2 131.8,428 154.8,343.9 194.9,330.2 189.9,311.6 
	230.1,300.8 240.9,341 222.9,345.9 231.3,388.6 170.1,450.4 238,422.8 255,509.2 271.8,423.2 341.7,452.1 278.6,388.9 287.1,345.6 
	270,341 280.7,300.8 320.9,311.6 316,329.9 357.4,344 380.5,428.3 390.6,355.4 474.2,383.9 408.1,326.3 467.8,280.4 381.9,303.4 
	348.1,273.9 335.4,286.5 306,257.1 335.4,227.6 349.2,241.4 382.4,212.4 466.8,234.6 408.8,189.4 475,131.6 "/>
</svg>
