<?xml version="1.0" encoding="utf-8"?>
<!-- Generator: Adobe Illustrator 19.2.1, SVG Export Plug-In . SVG Version: 6.00 Build 0)  -->
<svg version="1.1" id="Layer_1" xmlns="http://www.w3.org/2000/svg" xmlns:xlink="http://www.w3.org/1999/xlink" x="0px" y="0px"
	 viewBox="0 0 512 512" style="enable-background:new 0 0 512 512;" xml:space="preserve">
<polygon points="174.9,277.6 174.9,277.7 143.3,269.2 146.8,255.9 114.1,244.7 96,177.1 88.2,235.9 23.3,213.6 75.4,259.1 
	29.6,294.7 96.1,277.2 121.5,299.4 131.8,289 155,312.2 131.8,335.3 122.4,325.9 96.5,348.5 28.9,330.4 75.9,366.5 24,411.8 
	89.6,389.3 97.5,446.6 115.6,380.4 147.2,369.6 143.3,355 174.9,346.6 183.4,378.2 169.2,382 175.8,415.6 127.6,464.2 181.1,442.5 
	193.6,506.5 193.6,296.3 "/>
<polygon points="337.2,277.6 337.2,277.7 368.8,269.2 365.3,255.9 398,244.7 416.1,177.1 423.9,235.9 488.8,213.6 436.7,259.1 
	482.5,294.7 416,277.2 390.6,299.4 380.3,289 357.1,312.2 380.3,335.3 389.7,325.9 415.6,348.5 483.2,330.4 436.2,366.5 
	488.1,411.8 422.5,389.3 414.6,446.6 396.5,380.4 364.9,369.6 368.8,355 337.2,346.6 328.7,378.2 342.9,382 336.3,415.6 
	384.5,464.2 331,442.5 318.5,506.5 318.5,296.3 "/>
</svg>
