<?xml version="1.0" encoding="utf-8"?>
<!-- Generator: Adobe Illustrator 19.2.1, SVG Export Plug-In . SVG Version: 6.00 Build 0)  -->
<svg version="1.1" id="Layer_1" xmlns="http://www.w3.org/2000/svg" xmlns:xlink="http://www.w3.org/1999/xlink" x="0px" y="0px"
	 viewBox="0 0 512 512" style="enable-background:new 0 0 512 512;" xml:space="preserve">
<path d="M64.4,127.5C26.5,182.7,12.2,253,30.8,322.7c23.8,88.9,95,152.1,179.2,170.2C145.9,460.6,90.1,390.5,65.9,300
	C49.5,239,50.3,178.7,64.4,127.5L64.4,127.5z"/>
<path d="M449.2,127.5c14.1,51.2,14.8,111.6-1.5,172.5c-24.2,90.5-80,160.6-144.2,192.9c84.2-18.1,155.4-81.4,179.2-170.2
	C501.4,253,487.1,182.7,449.2,127.5L449.2,127.5z"/>
<path d="M118.5,167.8C90.9,208,80.5,259.3,94.1,310c17.4,64.8,69.2,110.8,130.6,124c-46.8-23.6-87.4-74.6-105.1-140.6
	C107.7,249.1,108.2,205.1,118.5,167.8z"/>
<path d="M395.1,167.8c10.3,37.3,10.8,81.3-1.1,125.7c-17.7,65.9-58.3,117-105.1,140.6c61.4-13.2,113.2-59.3,130.6-124
	C433.1,259.3,422.7,208,395.1,167.8L395.1,167.8z"/>
</svg>
