<?xml version="1.0" encoding="utf-8"?>
<!-- Generator: Adobe Illustrator 19.2.1, SVG Export Plug-In . SVG Version: 6.00 Build 0)  -->
<svg version="1.1" id="Layer_1" xmlns="http://www.w3.org/2000/svg" xmlns:xlink="http://www.w3.org/1999/xlink" x="0px" y="0px"
	 viewBox="0 0 512 512" style="enable-background:new 0 0 512 512;" xml:space="preserve">
<path d="M256.8,34.1c-32.7,0-62.8,19.6-85.4,53.1c-22.6,33.5-36.8,80.6-36.8,132.7s14.3,99.2,36.8,132.7
	c22.6,33.5,52.7,53.1,85.4,53.1s62.8-19.6,85.4-53.1s36.9-80.6,36.9-132.7s-14.3-99.2-36.9-132.7C319.6,53.7,289.5,34.1,256.8,34.1
	L256.8,34.1z"/>
<path d="M64.4,127.5C26.5,182.7,12.2,253,30.8,322.7c23.8,88.9,95,152.1,179.2,170.2C145.9,460.6,90.1,390.5,65.9,300
	C49.5,239,50.3,178.7,64.4,127.5L64.4,127.5z"/>
<path d="M449.2,127.5c14.1,51.2,14.8,111.6-1.5,172.5c-24.2,90.5-80,160.6-144.2,192.9c84.2-18.1,155.4-81.4,179.2-170.2
	C501.4,253,487.1,182.7,449.2,127.5L449.2,127.5z"/>
<path d="M118.5,167.8C90.9,208,80.5,259.3,94.1,310c17.4,64.8,69.2,110.8,130.6,124c-46.8-23.6-87.4-74.6-105.1-140.6
	C107.7,249.1,108.2,205.1,118.5,167.8z"/>
<path d="M395.1,167.8c10.3,37.3,10.8,81.3-1.1,125.7c-17.7,65.9-58.3,117-105.1,140.6c61.4-13.2,113.2-59.3,130.6-124
	C433.1,259.3,422.7,208,395.1,167.8L395.1,167.8z"/>
<path d="M197.3,169.9c20.1-0.2,38.9,8.6,52,25.3l-14.7,11.5c-16-20.4-38.8-25-64.6-10.3l-9.2-16.2
	C172.7,173.3,185.2,170,197.3,169.9L197.3,169.9z"/>
<path d="M314.4,170.4c0.6,0,1.2,0,1.9,0c12,0.1,24.5,3.5,36.6,10.3l-9.2,16.2c-25.8-14.7-48.6-10.1-64.6,10.3l-14.7-11.5
	C277.1,179.5,295.1,170.8,314.4,170.4L314.4,170.4z"/>
<path d="M256.8,237.1c42.2,0,76.4,34.2,76.4,76.4c0,42.2-34.2,76.4-76.4,76.4s-76.4-34.2-76.4-76.4S214.6,237.1,256.8,237.1
	L256.8,237.1z"/>
</svg>
